<?xml version="1.0" encoding="iso-8859-1"?>
<!-- Generator: Adobe Illustrator 19.0.0, SVG Export Plug-In . SVG Version: 6.00 Build 0)  -->
<svg version="1.1" id="Capa_1" xmlns="http://www.w3.org/2000/svg" xmlns:xlink="http://www.w3.org/1999/xlink" x="0px" y="0px"
	 viewBox="0 0 512 512" style="enable-background:new 0 0 512 512;" xml:space="preserve">
<g>
	<g>
		<path d="M135,166H75c-8.284,0-15,6.716-15,15v150c0,8.284,6.716,15,15,15h60c8.284,0,15-6.716,15-15V181
			C150,172.716,143.284,166,135,166z M120,316H90V196h30V316z"/>
	</g>
</g>
<g>
	<g>
		<path d="M256,166h-60c-8.284,0-15,6.716-15,15v150c0,8.284,6.716,15,15,15h60c8.284,0,15-6.716,15-15V181
			C271,172.716,264.284,166,256,166z M241,316h-30V196h30V316z"/>
	</g>
</g>
<g>
	<g>
		<path d="M377,166h-60c-8.284,0-15,6.716-15,15v150c0,8.284,6.716,15,15,15h60c8.284,0,15-6.716,15-15V181
			C392,172.716,385.284,166,377,166z M362,316h-30V196h30V316z"/>
	</g>
</g>
<g>
	<g>
		<path d="M467,166h-15v-15c0-24.813-20.187-45-45-45H45c-24.813,0-45,20.187-45,45v210c0,24.813,20.187,45,45,45h362
			c24.813,0,45-20.187,45-45v-15h15c24.813,0,45-20.187,45-45v-90C512,186.187,491.813,166,467,166z M422,181v150v30
			c0,8.271-6.729,15-15,15H45c-8.271,0-15-6.729-15-15V151c0-8.271,6.729-15,15-15h362c8.271,0,15,6.729,15,15V181z M482,301
			c0,8.271-6.729,15-15,15h-15V196h15c8.271,0,15,6.729,15,15V301z"/>
	</g>
</g>
<g>
</g>
<g>
</g>
<g>
</g>
<g>
</g>
<g>
</g>
<g>
</g>
<g>
</g>
<g>
</g>
<g>
</g>
<g>
</g>
<g>
</g>
<g>
</g>
<g>
</g>
<g>
</g>
<g>
</g>
</svg>
