<?xml version="1.0" encoding="UTF-8" standalone="no"?>
<!-- Created with Inkscape (http://www.inkscape.org/) -->

<svg
   width="210mm"
   height="297mm"
   viewBox="0 0 210 297"
   version="1.1"
   id="svg5"
   inkscape:version="1.1.1 (3bf5ae0d25, 2021-09-20)"
   sodipodi:docname="rysunek.svg"
   xmlns:inkscape="http://www.inkscape.org/namespaces/inkscape"
   xmlns:sodipodi="http://sodipodi.sourceforge.net/DTD/sodipodi-0.dtd"
   xmlns:xlink="http://www.w3.org/1999/xlink"
   xmlns="http://www.w3.org/2000/svg"
   xmlns:svg="http://www.w3.org/2000/svg">
  <sodipodi:namedview
     id="namedview7"
     pagecolor="#505050"
     bordercolor="#eeeeee"
     borderopacity="1"
     inkscape:pageshadow="0"
     inkscape:pageopacity="0"
     inkscape:pagecheckerboard="0"
     inkscape:document-units="mm"
     showgrid="false"
     inkscape:snap-object-midpoints="true"
     inkscape:zoom="0.77682379"
     inkscape:cx="388.1189"
     inkscape:cy="559.3289"
     inkscape:window-width="960"
     inkscape:window-height="1057"
     inkscape:window-x="952"
     inkscape:window-y="-8"
     inkscape:window-maximized="0"
     inkscape:current-layer="layer1" />
  <defs
     id="defs2">
    <inkscape:path-effect
       effect="bspline"
       id="path-effect4604"
       is_visible="true"
       lpeversion="1"
       weight="33.333333"
       steps="2"
       helper_size="0"
       apply_no_weight="true"
       apply_with_weight="true"
       only_selected="false" />
    <linearGradient
       inkscape:collect="always"
       id="linearGradient2075">
      <stop
         style="stop-color:#000000;stop-opacity:1;"
         offset="0"
         id="stop2071" />
      <stop
         style="stop-color:#000000;stop-opacity:0;"
         offset="1"
         id="stop2073" />
    </linearGradient>
    <radialGradient
       inkscape:collect="always"
       xlink:href="#linearGradient2075"
       id="radialGradient2077"
       cx="38.14679"
       cy="196.86467"
       fx="38.14679"
       fy="196.86467"
       r="41.552753"
       gradientTransform="matrix(1,0,0,0.54918026,-0.68119266,92.497039)"
       gradientUnits="userSpaceOnUse" />
    <filter
       inkscape:collect="always"
       style="color-interpolation-filters:sRGB"
       id="filter2079"
       x="-0.098209867"
       y="-0.17882993"
       width="1.1964197"
       height="1.3576599">
      <feGaussianBlur
         inkscape:collect="always"
         stdDeviation="2.9840754"
         id="feGaussianBlur2081" />
    </filter>
  </defs>
  <g
     inkscape:label="Warstwa 1"
     inkscape:groupmode="layer"
     id="layer1">
    <g
       id="g2086"
       transform="translate(95.268135,19.358994)">
      <ellipse
         style="mix-blend-mode:normal;fill:#008000;stroke:url(#radialGradient2077);stroke-width:2;stroke-linecap:round;stroke-opacity:1;filter:url(#filter2079)"
         id="path1950"
         cx="37.465595"
         cy="200.61124"
         rx="41.552753"
         ry="22.819952"
         transform="matrix(0.82928296,0,0,0.9312162,5.705086,9.2238371)" />
      <ellipse
         style="fill:#ffff00;stroke:none;stroke-width:2;stroke-linecap:round;stroke-opacity:0"
         id="path1828"
         cx="74.590591"
         cy="22.309059"
         rx="32.356647"
         ry="32.526947" />
      <path
         id="rect1483"
         style="fill:#ff0000;stroke:none;stroke-width:1.92954;stroke-linecap:round;stroke-opacity:0"
         d="M 17.340286,10.527368 V 192.54985 h 6.767029 v -14.52366 h 43.832983 v 14.52366 h 7.201111 V 10.527368 h -7.201111 v 21.3496 H 24.107315 v -21.3496 z m 6.767029,26.039237 H 67.940298 V 60.168782 H 24.107315 Z m 0,28.291813 H 67.940298 V 88.460595 H 24.107315 Z m 0,28.29233 H 67.940298 V 116.75241 H 24.107315 Z m 0,28.291812 h 43.832983 v 23.60218 H 24.107315 Z m 0,28.29181 h 43.832983 v 23.60218 H 24.107315 Z" />
    </g>
    <g
       id="g1459"
       transform="translate(1.4679144e-6,183.2777)">
      <rect
         style="fill:#008000;stroke:none;stroke-width:2.55814;stroke-linecap:round;stroke-opacity:0"
         id="rect1265"
         width="52.984352"
         height="52.984352"
         x="39.60046"
         y="-9.296443"
         rx="3.5501331e-17" />
      <path
         id="path846"
         style="fill:#0000ff;stroke:#000000;stroke-width:0.786957;stroke-linecap:round;stroke-opacity:1"
         inkscape:transform-center-x="0.0082571788"
         inkscape:transform-center-y="-3.3633648"
         d="m 47.039799,-0.56719407 c -5.513972,0.0042 0.777454,4.94138577 -4.667979,5.80808277 -5.445433,0.866697 -0.997361,-5.77988177 -6.240171,-4.0720008 -5.242809,1.707879 2.266506,4.4592718 -2.644585,6.9662818 -4.91109,2.5070103 -2.73476,-5.1887048 -7.193205,-1.944296 -4.458444,3.244407 3.533469,3.540576 -0.362548,7.4424943 -3.896016,3.901919 -4.204229,-4.0896193 -7.441884,0.373732 -3.237655,4.463349 4.454645,2.275479 1.955073,7.190358 -2.499574,4.914881 -5.262273,-2.590231 -6.962216,2.655158 -1.699943,5.245389 4.939808,0.787333 4.081354,6.234071 -0.858452,5.44674 -5.805138,-0.83725 -5.800965,4.676723 0.0042,5.513971 4.941385,-0.777658 5.808082,4.667775 0.866698,5.445434 -5.779881,0.997564 -4.072001,6.240373 1.70788,5.24281 4.459274,-2.266504 6.966282,2.644586 2.50701,4.91109 -5.188704,2.73476 -1.944296,7.193205 3.244407,4.458445 3.540577,-3.533469 7.442495,0.362548 3.901919,3.896018 -4.089619,4.20423 0.373732,7.441887 4.463349,3.237652 2.275479,-4.454647 7.190358,-1.955074 4.91488,2.499573 -2.590231,5.26227 2.655158,6.962216 5.245389,1.699942 0.787333,-4.93981 6.234071,-4.081358 5.446739,0.858453 -0.83725,5.805141 4.676722,5.800966 5.513972,-0.0042 -0.777657,-4.941384 4.667775,-5.80808 5.445434,-0.8667 0.997565,5.779679 6.240375,4.071796 5.242809,-1.707878 -2.266506,-4.459069 2.644585,-6.96608 4.911091,-2.50701 2.73476,5.188501 7.193205,1.944096 4.458444,-3.244409 -3.533671,-3.54058 0.362343,-7.442497 3.896017,-3.901918 4.204434,4.089622 7.442091,-0.373731 3.237652,-4.463349 -4.454848,-2.275276 -1.955279,-7.190155 2.499574,-4.914881 5.262274,2.590231 6.962216,-2.655158 1.699942,-5.245389 -4.939605,-0.787536 -4.081153,-6.234274 0.858457,-5.446739 5.805141,0.837453 5.80097,-4.676519 -0.0042,-5.513972 -4.941388,0.777657 -5.808084,-4.667775 -0.8667,-5.445434 5.779679,-0.997564 4.071796,-6.240374 -1.707878,-5.24281 -4.459069,2.266505 -6.96608,-2.644585 -2.507006,-4.911091 5.188505,-2.734761 1.944096,-7.193206 C 72.367723,9.5055487 72.071556,17.497461 68.169636,13.601445 64.267718,9.7054277 72.259257,9.3972147 67.795906,6.1595597 63.332556,2.9219039 65.52063,10.614205 60.60575,8.1146327 55.69087,5.6150597 63.195981,2.8523589 57.950592,1.1524169 52.705203,-0.54752507 57.163056,6.0922247 51.716317,5.2337717 46.269578,4.3753177 52.553772,-0.57136707 47.039799,-0.56719407 Z M 47.066439,10.211431 A 24.525184,24.525184 0 0 1 71.591575,34.73657 24.525184,24.525184 0 0 1 47.066436,59.261909 24.525184,24.525184 0 0 1 22.541298,34.73657 24.525184,24.525184 0 0 1 47.066436,10.211431 Z" />
    </g>
    <path
       id="rect2132"
       style="fill:#550000;stroke:none;stroke-width:4.61767;stroke-linecap:round;stroke-opacity:1"
       d="M 53.822656,29.968109 34.501212,49.289554 A 13.569625,13.569625 0 0 0 24.907307,45.314061 13.569625,13.569625 0 0 0 11.337914,58.883461 13.569625,13.569625 0 0 0 24.907307,72.452854 13.569625,13.569625 0 0 0 34.496441,68.4714 L 53.822656,87.797615 73.148871,68.4714 a 13.569625,13.569625 0 0 0 9.587939,3.981454 13.569625,13.569625 0 0 0 13.570585,-13.569393 13.569625,13.569625 0 0 0 -13.570585,-13.5694 13.569625,13.569625 0 0 0 -9.587939,3.981455 z m -7.330551,17.456589 a 4.5216888,4.5216888 0 0 1 4.521936,4.521942 4.5216888,4.5216888 0 0 1 -4.521936,4.521936 4.5216888,4.5216888 0 0 1 -4.521942,-4.521936 4.5216888,4.5216888 0 0 1 4.521942,-4.521942 z m 14.661102,0 a 4.5216888,4.5216888 0 0 1 4.521936,4.521942 4.5216888,4.5216888 0 0 1 -4.521936,4.521936 4.5216888,4.5216888 0 0 1 -4.521942,-4.521936 4.5216888,4.5216888 0 0 1 4.521942,-4.521942 z m 1.114378,21.402252 c 0,2.149702 -3.897452,3.684365 -8.619127,3.684365 -4.721675,0 -8.270731,-1.465456 -8.270731,-3.615165 8.198378,3.572477 8.270999,3.614652 16.889858,-0.0692 z" />
    <ellipse
       style="fill:#ffff00;stroke:none;stroke-width:0;stroke-linecap:round;stroke-opacity:1"
       id="path2386"
       cx="-26.311066"
       cy="9.1109514"
       rx="1.8732797"
       ry="0"
       transform="scale(-1,1)" />
  </g>
</svg>
