<?xml version="1.0" encoding="UTF-8" standalone="no"?>
<!-- Created with Inkscape (http://www.inkscape.org/) -->

<svg
   width="210mm"
   height="297mm"
   viewBox="0 0 210 297"
   version="1.1"
   id="svg5"
   inkscape:version="1.1.2 (b8e25be833, 2022-02-05)"
   sodipodi:docname="trzy.svg"
   xmlns:inkscape="http://www.inkscape.org/namespaces/inkscape"
   xmlns:sodipodi="http://sodipodi.sourceforge.net/DTD/sodipodi-0.dtd"
   xmlns="http://www.w3.org/2000/svg"
   xmlns:svg="http://www.w3.org/2000/svg">
  <sodipodi:namedview
     id="namedview7"
     pagecolor="#505050"
     bordercolor="#eeeeee"
     borderopacity="1"
     inkscape:pageshadow="0"
     inkscape:pageopacity="0"
     inkscape:pagecheckerboard="0"
     inkscape:document-units="mm"
     showgrid="false"
     inkscape:zoom="0.35355339"
     inkscape:cx="-1169.5546"
     inkscape:cy="-243.24473"
     inkscape:window-width="3440"
     inkscape:window-height="1417"
     inkscape:window-x="-8"
     inkscape:window-y="-8"
     inkscape:window-maximized="1"
     inkscape:current-layer="layer1" />
  <defs
     id="defs2">
    <filter
       inkscape:collect="always"
       style="color-interpolation-filters:sRGB"
       id="filter3949"
       x="-0.16090151"
       y="-0.32180303"
       width="1.321803"
       height="1.6436061">
      <feGaussianBlur
         inkscape:collect="always"
         stdDeviation="1.8779382"
         id="feGaussianBlur3951" />
    </filter>
  </defs>
  <g
     inkscape:label="Warstwa 1"
     inkscape:groupmode="layer"
     id="layer1">
    <g
       id="g3225"
       transform="translate(-20.412371,-10.376289)">
      <rect
         style="fill:#008000;fill-opacity:1;stroke:none;stroke-width:1.27;stroke-miterlimit:4;stroke-dasharray:none;stroke-opacity:1"
         id="rect2655"
         width="33.680412"
         height="33.680412"
         x="43.801548"
         y="10.291238" />
      <path
         id="path2020"
         style="fill:#000080;fill-rule:evenodd;stroke:#000000;stroke-width:4;stroke-miterlimit:4;stroke-dasharray:none;stroke-opacity:1"
         inkscape:transform-center-x="1.2322138"
         inkscape:transform-center-y="-1.2322138"
         d="m 178.95703,49.230469 c -13.13544,-0.02413 1.17787,19.853234 -11.81445,21.787109 -12.99233,1.933876 -5.08946,-21.251025 -17.64844,-17.402344 -12.55898,3.848681 6.97791,18.623268 -4.86719,24.300782 -11.84509,5.677513 -11.12558,-18.805301 -21.99218,-11.425782 -10.86661,7.37952 12.15709,15.739571 2.51171,24.65625 -9.64537,8.916676 -16.17608,-14.692156 -24.38476,-4.4375 -8.20868,10.254656 16.25658,11.456753 9.66797,22.820316 -6.58862,11.36356 -19.786047,-9.27136 -24.607424,2.94726 -4.821377,12.21862 18.911274,6.1563 15.964844,18.95703 -2.946436,12.80074 -21.64081,-3.02659 -22.646485,10.07032 -1.005675,13.0969 19.8862,0.30964 20.84375,13.41015 0.957555,13.10052 -21.571261,3.4854 -18.671875,16.29688 2.899386,12.81147 19.09269,-5.56633 23.86914,6.66992 4.77645,12.23625 -19.585885,9.69043 -13.039062,21.07812 6.546823,11.38769 16.604442,-10.94685 24.775392,-0.6621 8.17095,10.28474 -15.85864,15.03231 -6.24609,23.98437 9.61254,8.95206 12.63909,-15.35494 23.47851,-7.93555 10.83942,7.4194 -10.72259,19.03877 1.10156,24.75977 11.82416,5.72099 7.55095,-18.3987 20.09571,-14.50391 12.54475,3.8948 -4.63553,21.35434 8.34961,23.33594 12.98513,1.9816 1.79424,-19.80733 14.92968,-19.7832 13.13544,0.0241 1.8651,21.77176 14.85743,19.83789 12.99232,-1.93388 -4.12344,-19.45601 8.43554,-23.30469 12.55898,-3.84868 8.19788,20.25369 20.04297,14.57617 11.84509,-5.67751 -9.6752,-17.37634 1.19141,-24.75586 10.8666,-7.37952 13.80384,16.93817 23.44922,8.02149 9.64537,-8.91668 -14.36689,-13.75121 -6.15821,-24.00586 8.20868,-10.25466 18.18482,12.11746 24.77344,0.7539 6.58862,-11.36356 -17.78231,-8.90638 -12.96094,-21.125 4.82138,-12.21862 20.9481,6.21871 23.89453,-6.58203 2.94644,-12.80074 -19.61895,-3.27028 -18.61328,-16.36719 1.00568,-13.0969 21.85013,-0.23151 20.89258,-13.33203 -0.95755,-13.10051 -19.70999,2.65718 -22.60937,-10.15429 -2.89939,-12.81148 20.81161,-6.66219 16.03515,-18.89844 -4.77645,-12.23625 -18.05083,8.35058 -24.59765,-3.03711 -6.54683,-11.38769 17.9229,-12.500411 9.75195,-22.785156 -8.17095,-10.284746 -14.78785,13.299716 -24.40039,4.347656 -9.61255,-8.952057 13.44293,-17.22709 2.60351,-24.646484 -10.83941,-7.419394 -10.211,17.066697 -22.03515,11.345703 -11.82416,-5.720994 7.76546,-20.425516 -4.7793,-24.320313 -12.54476,-3.894797 -4.72581,19.319487 -17.71094,17.337891 -12.98513,-1.981596 1.40302,-21.805948 -11.73242,-21.830078 z m -0.17187,36.435547 a 63.005114,63.005114 0 0 1 63.0039,63.005864 63.005114,63.005114 0 0 1 -63.0039,63.0039 63.005114,63.005114 0 0 1 -63.00586,-63.0039 63.005114,63.005114 0 0 1 63.00586,-63.005864 z"
         transform="scale(0.26458333)" />
    </g>
    <g
       id="g3956"
       transform="translate(20.17981,0.60401701)">
      <ellipse
         style="mix-blend-mode:normal;fill:#008000;fill-opacity:1;stroke:#008000;stroke-width:1.058;stroke-miterlimit:4;stroke-dasharray:none;stroke-opacity:1;filter:url(#filter3949)"
         id="path3703"
         cx="87.092789"
         cy="77.141754"
         rx="15.649485"
         ry="7.8247423" />
      <circle
         style="fill:#ffff00;fill-opacity:1;stroke:none;stroke-width:1.05833;stroke-miterlimit:4;stroke-dasharray:none;stroke-opacity:1"
         id="path3577"
         cx="104.7835"
         cy="12.842784"
         r="13.438144" />
      <path
         id="rect3271"
         style="fill:#ff0000;fill-opacity:1;stroke:none;stroke-width:2.69379;stroke-miterlimit:4;stroke-dasharray:none;stroke-opacity:1"
         d="M 306.66797,42.847656 V 294.77344 h 12.53711 v -30.85938 h 67.82617 v 30.85938 h 12.21484 V 42.847656 H 387.03125 V 73.613281 H 319.20508 V 42.847656 Z m 12.53711,44.138672 h 67.82617 V 117.8457 h -67.82617 z m 0,44.232422 h 67.82617 v 30.85937 h -67.82617 z m 0,44.23047 h 67.82617 v 30.86133 h -67.82617 z m 0,44.23242 h 67.82617 v 30.85938 h -67.82617 z"
         transform="scale(0.26458333)" />
    </g>
    <g
       id="g8312"
       transform="translate(75.022556,-14.68646)">
      <path
         id="rect3980"
         style="fill:#800000;fill-opacity:1;stroke:#800000;stroke-width:4.75756;stroke-miterlimit:4;stroke-dasharray:none;stroke-opacity:1"
         d="m 434.83203,59.203125 -39,39 a 17.502313,17.502313 0 0 0 -16.12109,-10.691406 17.502313,17.502313 0 0 0 -17.50391,17.501951 17.502313,17.502313 0 0 0 17.50391,17.50195 17.502313,17.502313 0 0 0 15.67383,-9.72851 l 39.44726,39.44727 39.44531,-39.44727 a 17.502313,17.502313 0 0 0 15.67383,9.72851 17.502313,17.502313 0 0 0 17.50391,-17.50195 17.502313,17.502313 0 0 0 -17.50391,-17.501951 17.502313,17.502313 0 0 0 -16.11328,10.699219 z M 419.75977,81.6875 A 10.569578,10.569578 0 0 1 430.33008,92.255859 10.569578,10.569578 0 0 1 419.75977,102.82617 10.569578,10.569578 0 0 1 409.19141,92.255859 10.569578,10.569578 0 0 1 419.75977,81.6875 Z m 30.14062,0 A 10.569578,10.569578 0 0 1 460.46875,92.255859 10.569578,10.569578 0 0 1 449.90039,102.82617 10.569578,10.569578 0 0 1 439.33008,92.255859 10.569578,10.569578 0 0 1 449.90039,81.6875 Z m -35.65234,38.04883 c 2.51289,-0.0873 10.72018,5.07617 20.58203,5.07617 11.90865,0 21.6875,-7.52919 21.6875,-4.25 0,13.09169 -9.77885,12.875 -21.6875,12.875 -11.90865,0 -21.25001,-0.0958 -21.375,-12.875 -0.005,-0.56358 0.27142,-0.80805 0.79297,-0.82617 z"
         transform="scale(0.26458333)" />
    </g>
  </g>
</svg>
