<?xml version="1.0" encoding="UTF-8" standalone="no"?>
<!-- Created with Inkscape (http://www.inkscape.org/) -->

<svg
   width="210mm"
   height="297mm"
   viewBox="0 0 210 297"
   version="1.1"
   id="svg5"
   sodipodi:docname="rysunek.svg"
   inkscape:version="1.1.1 (3bf5ae0d25, 2021-09-20)"
   xmlns:inkscape="http://www.inkscape.org/namespaces/inkscape"
   xmlns:sodipodi="http://sodipodi.sourceforge.net/DTD/sodipodi-0.dtd"
   xmlns="http://www.w3.org/2000/svg"
   xmlns:svg="http://www.w3.org/2000/svg">
  <sodipodi:namedview
     id="namedview7"
     pagecolor="#ffffff"
     bordercolor="#999999"
     borderopacity="1"
     inkscape:pageshadow="0"
     inkscape:pageopacity="0"
     inkscape:pagecheckerboard="0"
     inkscape:document-units="mm"
     showgrid="false"
     inkscape:zoom="2.1971895"
     inkscape:cx="345.66887"
     inkscape:cy="304.25232"
     inkscape:window-width="1920"
     inkscape:window-height="1057"
     inkscape:window-x="-8"
     inkscape:window-y="-8"
     inkscape:window-maximized="1"
     inkscape:current-layer="layer1" />
  <defs
     id="defs2">
    <linearGradient
       id="linearGradient5650"
       inkscape:swatch="solid">
      <stop
         style="stop-color:#000000;stop-opacity:1;"
         offset="0"
         id="stop5648" />
    </linearGradient>
    <filter
       inkscape:collect="always"
       style="color-interpolation-filters:sRGB"
       id="filter6576"
       x="-0.16223255"
       y="-0.29103535"
       width="1.3244651"
       height="1.5820707">
      <feGaussianBlur
         inkscape:collect="always"
         stdDeviation="6.8148827"
         id="feGaussianBlur6578" />
    </filter>
  </defs>
  <g
     inkscape:label="Warstwa 1"
     inkscape:groupmode="layer"
     id="layer1">
    <path
       sodipodi:type="star"
       style="fill:none"
       id="path31"
       inkscape:flatsided="false"
       sodipodi:sides="5"
       sodipodi:cx="132.5912"
       sodipodi:cy="196.95586"
       sodipodi:r1="363.09885"
       sodipodi:r2="150.49612"
       sodipodi:arg1="0.90602183"
       sodipodi:arg2="1.5343404"
       inkscape:rounded="-3.469447e-18"
       inkscape:randomized="0"
       d="M 356.58022,482.73495 138.07646,347.35198 -69.984454,498.29267 -8.7489771,248.64761 -216.59646,97.413155 39.752907,78.506988 119.35701,-165.90173 216.55416,72.058678 473.59969,72.240235 277.32146,238.21402 Z"
       transform="scale(0.26458333)"
       inkscape:transform-center-x="1.0820374"
       inkscape:transform-center-y="-8.1386861" />
    <g
       id="g2062"
       transform="translate(191.75573,-20.43578)">
      <rect
         style="fill:#00ff00;stroke-width:0.264583"
         id="rect203"
         width="81.061928"
         height="76.293571"
         x="111.7156"
         y="12.602064" />
      <path
         id="path77"
         style="fill:#0000ff;stroke:#000000;stroke-width:2.64583;stroke-miterlimit:4;stroke-dasharray:none;stroke-opacity:0.991968"
         inkscape:transform-center-x="2.3892076"
         inkscape:transform-center-y="-2.4995796"
         d="m 119.10678,33.901921 c -6.51437,-0.02329 -0.16023,8.093818 -6.59805,9.089884 -6.43781,0.996064 -2.8334,-8.66181 -9.03614,-6.67091 -6.202728,1.990897 2.34847,7.746878 -3.46645,10.683584 -5.814922,2.936708 -5.371753,-7.36141 -10.65568,-3.551203 -5.283928,3.810206 4.627478,6.64147 0.0047,11.231356 -4.622826,4.589883 -7.383459,-5.341295 -11.231356,-0.08475 -3.847896,5.256543 6.453458,4.886714 3.475242,10.680483 -2.978219,5.793772 -8.672672,-2.79836 -10.707876,3.389974 -2.035204,6.188337 7.647877,2.65316 6.605799,9.083683 -1.04208,6.43052 -9.113099,0.01857 -9.136393,6.53294 -0.02329,6.51437 8.093303,0.16023 9.089366,6.59804 0.996067,6.43781 -8.661291,2.83393 -6.670391,9.03666 1.990896,6.202728 7.746359,-2.34846 10.683067,3.466458 2.936709,5.81492 -7.361409,5.37123 -3.551203,10.65516 3.810204,5.28393 6.641986,-4.62748 11.231872,-0.005 4.589883,4.62282 -5.34181,7.38346 -0.08527,11.23135 5.256546,3.8479 4.886714,-6.45345 10.680486,-3.47524 5.793767,2.97822 -2.798363,8.67319 3.389977,10.7084 6.18833,2.0352 2.65316,-7.64788 9.08368,-6.6058 6.43053,1.04207 0.0186,9.1131 6.53294,9.13639 6.51437,0.0233 0.16024,-8.0933 6.59805,-9.08937 6.43781,-0.99606 2.83392,8.66129 9.03665,6.6704 6.20274,-1.9909 -2.34846,-7.74688 3.46646,-10.68359 5.81492,-2.93671 5.37124,7.36193 10.65516,3.55172 5.28393,-3.81021 -4.62748,-6.64199 -0.005,-11.23187 4.62283,-4.58988 7.38398,5.34129 11.23187,0.0847 3.8479,-5.25655 -6.45345,-4.88672 -3.47524,-10.68049 2.97822,-5.793768 8.67267,2.79836 10.70788,-3.38997 2.0352,-6.188338 -7.64788,-2.653158 -6.6058,-9.083688 1.04208,-6.43052 9.1131,-0.0186 9.13639,-6.53293 0.0233,-6.514369 -8.0933,-0.16024 -9.08936,-6.598046 -0.99607,-6.437812 8.66129,-2.833925 6.67039,-9.036658 -1.9909,-6.202733 -7.74688,2.348981 -10.68359,-3.465939 -2.93671,-5.81492 7.36193,-5.371753 3.55172,-10.655681 -3.8102,-5.283927 -6.64198,4.627478 -11.23187,0.0047 -4.58988,-4.622827 5.34181,-7.38346 0.0853,-11.231356 -5.25655,-3.847894 -4.88723,6.453457 -10.681,3.475241 -5.79378,-2.978216 2.79887,-8.672669 -3.38946,-10.707873 -6.18834,-2.035204 -2.65368,7.647358 -9.0842,6.605281 -6.43052,-1.042077 -0.0186,-9.113099 -6.53294,-9.136393 z m -0.29403,16.112193 A 34.398709,34.69981 0 0 1 153.21168,84.713802 34.398709,34.69981 0 0 1 118.81275,119.41349 34.398709,34.69981 0 0 1 84.414327,84.713802 34.398709,34.69981 0 0 1 118.81275,50.014114 Z" />
    </g>
    <g
       id="g7103"
       transform="translate(-156.33372,-10.558486)">
      <ellipse
         style="opacity:1;fill:#008000;fill-opacity:1;fill-rule:nonzero;stroke:none;filter:url(#filter6576)"
         id="ellipse3580"
         cx="71.184502"
         cy="162.59752"
         rx="50.408253"
         ry="28.099195" />
      <ellipse
         style="fill:#ffff00;stroke:none;stroke-width:2.646;stroke-miterlimit:4;stroke-dasharray:none;stroke-opacity:0.991968"
         id="path2086"
         cx="102.33276"
         cy="40.551048"
         rx="29.478016"
         ry="29.611797" />
      <path
         id="rect5734"
         style="fill:#ff0000;fill-opacity:1;fill-rule:nonzero;stroke:none;stroke-width:0.357883"
         d="M 46.734653,38.467056 V 160.38364 h 6.057511 v -8.00468 h 41.553019 v 8.00468 h 6.057507 V 38.467056 h -6.057507 v 8.003646 H 52.792164 v -8.003646 z m 6.057511,15.288988 H 94.345183 V 71.126561 H 52.792164 Z m 0,24.655859 H 94.345183 V 95.78242 H 52.792164 Z m 0,24.655857 h 41.553019 v 17.37052 H 52.792164 Z m 0,24.65586 h 41.553019 v 17.37 H 52.792164 Z" />
    </g>
    <path
       id="rect7127"
       style="opacity:1;fill:#800000;fill-opacity:1;fill-rule:nonzero;stroke:none;stroke-width:0.707104"
       d="M 385.49414 238.21484 L 349.07422 274.63477 A 19.999999 19.999999 0 0 0 334.39062 268.21484 A 19.999999 19.999999 0 0 0 314.39062 288.21484 A 19.999999 19.999999 0 0 0 334.39062 308.21484 A 19.999999 19.999999 0 0 0 349.07422 301.79492 L 385.49414 338.21484 L 421.91406 301.79492 A 19.999999 19.999999 0 0 0 436.5957 308.21484 A 19.999999 19.999999 0 0 0 456.5957 288.21484 A 19.999999 19.999999 0 0 0 436.5957 268.21484 A 19.999999 19.999999 0 0 0 421.91406 274.63477 L 385.49414 238.21484 z M 372.0957 266.87695 A 9.9999995 9.9999995 0 0 1 382.0957 276.87695 A 9.9999995 9.9999995 0 0 1 372.0957 286.87695 A 9.9999995 9.9999995 0 0 1 362.0957 276.87695 A 9.9999995 9.9999995 0 0 1 372.0957 266.87695 z M 398.88867 266.87695 A 9.9999995 9.9999995 0 0 1 408.88867 276.87695 A 9.9999995 9.9999995 0 0 1 398.88867 286.87695 A 9.9999995 9.9999995 0 0 1 388.88867 276.87695 A 9.9999995 9.9999995 0 0 1 398.88867 266.87695 z "
       transform="scale(0.26458333)" />
  </g>
</svg>
